<?xml version="1.0" standalone="no"?>
<!DOCTYPE svg PUBLIC "-//W3C//DTD SVG 20010904//EN"
 "http://www.w3.org/TR/2001/REC-SVG-20010904/DTD/svg10.dtd">
<svg version="1.0" xmlns="http://www.w3.org/2000/svg"
 width="532.000000pt" height="155.000000pt" viewBox="0 0 532.000000 155.000000"
 preserveAspectRatio="xMidYMid meet">

<g transform="translate(0.000000,155.000000) scale(0.100000,-0.100000)"
fill="#000000" stroke="none">
<path d="M1586 1514 c-14 -14 -16 -81 -16 -589 0 -508 2 -575 16 -589 14 -14
117 -16 983 -16 739 0 970 3 979 12 9 9 12 155 12 595 0 565 -1 583 -19 593
-13 7 -337 10 -980 10 -859 0 -961 -2 -975 -16z m1904 -579 l0 -515 -920 0
-920 0 0 515 0 515 920 0 920 0 0 -515z"/>
<path d="M2429 1198 c-21 -69 -28 -107 -22 -118 5 -8 42 -72 82 -142 41 -71
76 -128 80 -128 3 0 43 65 88 143 l81 144 -31 101 c-17 56 -34 102 -39 102 -4
0 -20 -42 -36 -92 -29 -93 -29 -93 -64 -96 l-34 -3 -29 96 c-15 52 -31 95 -36
95 -4 0 -22 -46 -40 -102z m65 -21 c10 -32 15 -61 12 -64 -2 -3 -10 14 -16 37
-13 49 -31 48 -43 -3 -5 -20 -12 -37 -17 -37 -4 0 2 31 14 69 11 39 24 67 27
63 3 -4 13 -33 23 -65z m196 7 c12 -36 20 -68 17 -71 -3 -3 -11 14 -17 37 -13
49 -31 48 -44 -3 -5 -20 -13 -37 -16 -37 -4 0 2 32 13 70 12 39 22 70 23 70 1
0 12 -30 24 -66z m-1 -134 c-13 -22 -27 -39 -33 -38 -15 2 -66 -24 -66 -34 0
-11 7 -10 40 7 l29 15 -32 -55 c-28 -50 -35 -56 -61 -53 -24 3 -36 16 -82 96
-30 52 -54 95 -54 98 0 2 63 4 141 4 l140 0 -22 -40z"/>
<path d="M2480 1005 c0 -5 55 -35 65 -35 15 0 2 18 -20 28 -27 13 -45 15 -45
7z"/>
<path d="M1980 1195 l0 -85 45 0 c25 0 45 5 45 10 0 6 -16 10 -35 10 l-35 0 0
75 c0 43 -4 75 -10 75 -6 0 -10 -35 -10 -85z"/>
<path d="M3123 1273 c26 -2 47 -7 47 -12 0 -4 -20 -35 -45 -69 -25 -34 -45
-66 -45 -72 0 -6 26 -9 63 -8 56 1 57 2 15 5 -27 2 -48 8 -48 12 0 4 20 36 45
72 25 35 45 67 45 72 0 4 -28 6 -62 5 -57 -1 -58 -2 -15 -5z"/>
<path d="M2109 976 c-20 -14 -50 -46 -67 -73 -17 -26 -47 -57 -67 -68 -21 -11
-44 -34 -54 -55 -30 -58 -65 -169 -57 -177 4 -4 28 0 52 9 43 15 47 15 62 0
10 -10 16 -27 14 -39 -3 -18 2 -23 17 -23 12 0 21 6 21 15 0 10 10 15 30 15
24 0 33 -7 50 -40 32 -63 40 -56 86 71 21 57 25 81 19 113 -4 23 -9 82 -10
133 -1 66 -6 98 -18 117 -22 32 -33 32 -78 2z m49 -113 c-5 -89 -36 -182 -75
-225 -31 -35 -31 -17 0 71 17 49 29 93 25 97 -17 17 -37 -10 -63 -85 -30 -86
-45 -102 -45 -48 0 65 49 183 101 242 52 59 62 49 57 -52z m-190 -134 c-11
-51 -22 -68 -41 -69 -10 0 -2 28 24 89 25 57 33 48 17 -20z m209 -41 c-3 -18
-13 -51 -22 -73 -14 -32 -19 -36 -26 -23 -7 12 -1 33 18 72 15 31 29 56 31 56
3 0 2 -15 -1 -32z"/>
<path d="M2909 973 c-7 -17 -8 -56 -4 -98 7 -79 7 -81 -1 -151 -5 -44 -1 -61
35 -137 22 -48 45 -87 51 -87 6 0 20 20 31 45 16 35 25 45 44 45 13 0 28 -7
33 -17 13 -22 45 -9 38 15 -4 12 1 25 13 36 17 15 25 16 52 7 40 -14 69 -14
69 -1 0 6 -20 52 -45 104 -40 85 -49 96 -89 115 -25 12 -55 39 -71 61 -32 46
-92 90 -123 90 -15 0 -26 -9 -33 -27z m98 -58 c65 -68 120 -190 111 -245 -3
-20 -12 -8 -45 63 -23 48 -47 87 -53 87 -24 0 -19 -30 15 -105 19 -43 33 -80
30 -83 -11 -11 -48 37 -81 105 -27 56 -37 91 -41 148 -7 91 1 95 64 30z m169
-172 c28 -64 29 -65 8 -61 -10 2 -24 26 -35 63 -22 71 -22 68 -8 59 6 -3 22
-31 35 -61z m-176 -136 c0 -33 -15 -23 -36 24 -36 76 -31 106 6 42 17 -29 30
-58 30 -66z"/>
<path d="M2500 645 c0 -50 4 -85 10 -85 6 0 10 18 10 40 0 53 18 52 64 -2 19
-24 37 -40 41 -37 3 4 -10 26 -30 49 l-36 43 38 39 c20 21 33 38 27 38 -5 0
-27 -18 -49 -40 -21 -21 -42 -37 -47 -34 -4 3 -8 21 -8 40 0 19 -4 34 -10 34
-6 0 -10 -35 -10 -85z"/>
<path d="M30 905 l0 -305 170 0 170 0 0 35 0 35 -130 0 -130 0 0 270 0 270
-40 0 -40 0 0 -305z"/>
<path d="M480 905 l0 -305 40 0 40 0 0 140 0 140 34 0 c32 0 44 -11 156 -140
l121 -140 45 0 44 0 -131 155 c-72 85 -135 155 -140 155 -6 0 49 66 120 148
l130 147 -36 3 c-19 2 -43 -3 -53 -10 -10 -7 -66 -68 -125 -135 -91 -105 -111
-123 -136 -123 l-29 0 0 135 0 135 -40 0 -40 0 0 -305z"/>
<path d="M1030 1175 l0 -35 165 0 c91 0 165 -2 165 -4 0 -3 -79 -116 -175
-251 -96 -136 -175 -256 -175 -266 0 -18 11 -19 225 -19 l225 0 0 35 0 35
-169 2 -169 3 174 244 c106 149 174 253 174 268 l0 23 -220 0 -220 0 0 -35z"/>
<path d="M3660 895 l0 -305 133 0 c196 0 281 30 340 119 121 182 33 438 -164
480 -27 6 -108 11 -179 11 l-130 0 0 -305z m318 220 c87 -37 126 -105 126
-220 0 -62 -5 -89 -21 -120 -47 -89 -102 -115 -243 -115 l-100 0 0 235 0 235
100 0 c68 0 113 -5 138 -15z"/>
<path d="M4310 895 l0 -305 185 0 185 0 0 35 0 35 -150 0 -150 0 0 105 0 105
120 0 120 0 0 30 0 30 -120 0 -120 0 0 100 0 100 150 0 150 0 0 35 0 35 -185
0 -185 0 0 -305z"/>
<path d="M4745 1163 c8 -21 64 -157 123 -303 l108 -265 38 0 37 0 123 300 122
300 -35 3 c-19 2 -39 -2 -46 -10 -7 -7 -55 -122 -107 -254 l-94 -242 -100 252
-99 251 -43 3 -42 3 15 -38z"/>
<path d="M2367 283 c-3 -5 -8 -43 -12 -86 -7 -74 -10 -82 -47 -120 -21 -22
-36 -47 -34 -54 8 -19 574 -19 582 0 2 7 -13 31 -34 54 -36 38 -40 46 -48 124
l-9 84 -197 3 c-108 1 -199 -1 -201 -5z"/>
</g>
</svg>
