<?xml version="1.0" standalone="no"?>
<!DOCTYPE svg PUBLIC "-//W3C//DTD SVG 20010904//EN"
 "http://www.w3.org/TR/2001/REC-SVG-20010904/DTD/svg10.dtd">
<svg version="1.0" xmlns="http://www.w3.org/2000/svg"
 width="469.000000pt" height="295.000000pt" viewBox="0 0 469.000000 295.000000"
 preserveAspectRatio="xMidYMid meet">

<g transform="translate(0.000000,295.000000) scale(0.100000,-0.100000)"
fill="#000000" stroke="none">
<path d="M1264 2262 c-58 -9 -123 -129 -213 -392 -22 -63 -67 -179 -100 -256
-96 -228 -209 -558 -242 -708 -22 -101 -35 -291 -21 -300 20 -12 125 -14 136
-2 22 23 44 83 56 146 26 146 131 517 159 559 7 11 13 7 25 -17 19 -37 40 -44
129 -47 133 -5 286 37 413 114 l82 49 6 -40 c6 -33 12 -41 44 -55 48 -20 147
-19 203 3 60 24 121 76 224 194 49 55 89 99 91 98 1 -2 -5 -45 -13 -97 -32
-200 14 -278 150 -253 41 8 123 66 133 95 6 18 7 18 27 0 50 -43 107 -66 152
-60 86 12 136 45 242 159 34 36 63 64 66 62 2 -2 14 8 28 23 19 21 20 25 6 20
-13 -5 -9 2 10 22 15 16 29 28 30 27 1 -1 -10 -41 -24 -88 -26 -87 -27 -88
-87 -130 -83 -58 -175 -137 -343 -296 -105 -100 -162 -163 -224 -250 -46 -65
-93 -127 -105 -140 -12 -12 -24 -36 -28 -53 -3 -17 -10 -28 -16 -24 -5 3 -7 0
-4 -9 3 -8 -3 -23 -14 -34 -11 -11 -18 -23 -15 -26 4 -3 1 -6 -6 -6 -7 0 -9
-5 -6 -10 3 -5 2 -10 -3 -10 -12 0 -56 -98 -79 -175 -9 -33 -17 -88 -18 -122
0 -57 3 -65 32 -94 27 -28 43 -34 110 -43 59 -9 84 -9 101 0 14 7 19 13 11 16
-6 2 3 4 22 4 40 1 212 81 204 95 -4 5 0 9 8 9 7 0 44 31 83 70 38 38 74 70
81 70 6 0 26 19 44 43 19 23 38 45 43 49 5 3 11 13 12 22 1 9 9 23 18 32 9 9
26 35 38 58 11 22 24 43 28 46 12 8 43 73 45 95 4 35 5 36 13 31 13 -8 63 121
151 389 74 223 82 242 113 263 18 12 42 30 53 40 18 16 116 72 325 184 36 19
82 40 102 47 20 7 42 19 50 28 12 15 11 15 -12 4 l-25 -12 25 20 c24 20 36 25
53 22 17 -3 5 17 -17 29 -30 16 -18 20 -298 -107 -114 -51 -213 -93 -219 -93
-7 0 -8 11 -4 33 7 32 108 288 151 384 13 28 24 65 24 81 0 28 -26 62 -47 62
-6 0 -16 7 -23 15 -19 23 -62 17 -97 -13 -21 -18 -44 -58 -70 -122 -57 -139
-119 -226 -277 -387 -142 -147 -192 -190 -203 -179 -10 9 13 68 64 171 25 50
62 128 83 175 21 47 63 131 94 188 31 56 56 114 56 129 0 55 -75 133 -128 133
-26 0 -89 -53 -98 -83 -3 -12 -52 -115 -109 -228 -56 -113 -115 -241 -130
-285 -34 -94 -59 -127 -143 -195 l-64 -51 8 84 c8 90 45 229 92 348 52 128 61
169 45 201 -28 56 -106 43 -164 -26 -5 -5 -27 -32 -50 -60 -219 -264 -412
-475 -424 -463 -4 3 1 32 9 63 11 43 26 69 55 99 35 36 41 48 41 85 0 99 241
421 315 421 14 0 54 -12 88 -26 78 -33 157 -35 157 -5 0 5 -26 26 -57 47 -32
22 -66 47 -77 56 -46 42 -182 37 -247 -8 -168 -115 -364 -387 -445 -619 -15
-44 -35 -85 -43 -92 -53 -40 -181 -93 -181 -75 0 3 14 20 31 36 61 60 169 202
196 256 14 30 30 63 35 73 5 10 6 22 3 27 -4 6 -2 10 2 10 5 0 9 8 10 18 3 42
25 112 34 106 5 -3 9 -1 9 5 0 5 -4 12 -10 16 -6 4 -5 15 2 30 6 13 15 22 19
19 5 -3 4 7 -1 21 -6 15 -10 41 -10 58 -1 38 -39 86 -77 96 -15 4 -54 3 -87
-1 -72 -10 -122 -40 -258 -155 -54 -46 -100 -83 -103 -83 -3 0 5 21 19 48 13
26 35 80 50 121 25 71 26 75 10 100 -32 48 -63 62 -120 53z m408 -219 c17 -67
-40 -232 -123 -355 -100 -149 -188 -239 -302 -312 -63 -41 -101 -42 -145 -6
-21 18 -22 20 -8 60 12 36 97 168 227 352 23 32 62 79 87 105 26 27 47 51 47
55 0 11 118 108 131 108 6 0 17 7 24 15 21 26 53 14 62 -22z m1843 -483 c-3
-5 -12 -10 -18 -10 -7 0 -6 4 3 10 19 12 23 12 15 0z m-2610 -181 c-15 -41
-29 -81 -32 -89 -3 -8 -7 -19 -8 -25 -9 -34 -48 -153 -56 -167 -5 -10 -9 -28
-9 -41 0 -28 -38 -148 -51 -161 -20 -22 -6 41 46 206 58 185 128 374 133 360
1 -5 -9 -42 -23 -83z m2049 -122 c-41 -31 -184 -161 -213 -192 -13 -14 -26
-23 -29 -20 -3 3 26 33 64 68 38 34 84 77 102 95 19 17 37 32 41 32 4 0 18 14
31 32 14 19 25 27 28 20 2 -7 -9 -23 -24 -35z m16 -34 c-9 -30 -40 -120 -77
-223 -13 -36 -23 -71 -23 -79 0 -7 -15 -45 -34 -85 -19 -39 -44 -91 -55 -116
-108 -238 -265 -441 -386 -501 -51 -25 -67 -29 -83 -20 -25 13 -36 74 -28 147
4 27 8 64 10 83 3 19 10 37 16 41 7 4 11 9 10 11 -4 11 21 59 29 55 5 -3 8 9
7 27 -1 20 8 47 25 72 14 22 41 63 58 92 29 47 104 138 85 104 -17 -32 55 31
95 83 24 31 48 54 54 53 6 -1 16 9 23 22 18 35 140 156 214 212 35 27 65 49
66 49 2 0 -1 -12 -6 -27z m-290 -216 c0 -2 -10 -12 -22 -23 l-23 -19 19 23
c18 21 26 27 26 19z m-70 -71 c0 -2 -8 -10 -17 -17 -16 -13 -17 -12 -4 4 13
16 21 21 21 13z m-343 -618 c-3 -7 -5 -2 -5 12 0 14 2 19 5 13 2 -7 2 -19 0
-25z"/>
<path d="M2481 774 c-12 -15 -21 -31 -21 -36 0 -5 -7 -16 -15 -24 -8 -9 -15
-21 -15 -27 1 -16 39 34 40 51 0 7 4 11 9 8 8 -5 41 34 41 49 0 13 -21 2 -39
-21z"/>
<path d="M1831 1974 c0 -11 3 -14 6 -6 3 7 2 16 -1 19 -3 4 -6 -2 -5 -13z"/>
</g>
</svg>
