<?xml version="1.0" standalone="no"?>
<!DOCTYPE svg PUBLIC "-//W3C//DTD SVG 20010904//EN"
 "http://www.w3.org/TR/2001/REC-SVG-20010904/DTD/svg10.dtd">
<svg version="1.0" xmlns="http://www.w3.org/2000/svg"
 width="500.000000pt" height="381.000000pt" viewBox="0 0 500.000000 381.000000"
 preserveAspectRatio="xMidYMid meet">

<g transform="translate(0.000000,381.000000) scale(0.100000,-0.100000)"
fill="#000000" stroke="none">
<path d="M106 3780 c-16 -5 -39 -19 -52 -31 l-24 -22 0 -1429 c0 -1577 -4
-1469 63 -1505 30 -17 156 -18 2412 -18 2258 0 2382 1 2412 18 18 9 41 29 50
44 17 26 18 111 21 1431 1 976 -1 1416 -8 1444 -9 33 -18 43 -53 59 -41 18
-103 19 -2417 18 -1306 0 -2388 -5 -2404 -9z m4684 -1470 l0 -1290 -2280 0
-2280 0 0 1290 0 1290 2280 0 2280 0 0 -1290z"/>
<path d="M2242 3203 c-23 -43 -153 -485 -147 -500 3 -10 94 -171 203 -358 120
-208 203 -340 212 -340 9 0 92 132 212 340 109 187 200 348 203 358 6 15 -124
457 -147 500 -23 45 -40 12 -113 -223 l-73 -235 -82 0 -83 0 -72 235 c-73 235
-90 268 -113 223z m84 -296 c40 -130 48 -167 36 -165 -9 2 -27 42 -49 111 -44
141 -55 141 -103 -5 -20 -62 -40 -108 -47 -108 -7 0 -13 3 -13 6 0 9 102 338
108 349 7 11 2 24 68 -188z m493 12 c28 -92 51 -170 51 -173 0 -3 -6 -6 -13
-6 -7 0 -27 46 -47 108 -47 145 -58 146 -104 5 -21 -65 -40 -109 -49 -111 -11
-2 0 44 41 178 31 99 59 177 62 173 4 -5 30 -83 59 -174z m22 -266 c-11 -21
-74 -130 -139 -243 l-119 -205 -73 0 -73 0 -119 205 c-65 113 -128 222 -139
243 l-19 37 350 0 350 0 -19 -37z"/>
<path d="M2296 2494 c-3 -9 -6 -17 -6 -20 0 -2 37 -22 81 -45 64 -32 84 -38
90 -27 16 25 8 34 -66 71 -85 42 -91 43 -99 21z"/>
<path d="M2623 2472 c-73 -36 -80 -45 -64 -70 12 -20 175 63 167 84 -3 9 -6
18 -6 20 0 10 -31 0 -97 -34z"/>
<path d="M1040 2985 l0 -225 120 0 120 0 0 25 c0 25 0 25 -95 25 l-95 0 0 200
0 200 -25 0 -25 0 0 -225z"/>
<path d="M3780 3190 c0 -18 8 -20 120 -22 l121 -3 -126 -184 c-69 -102 -125
-193 -125 -203 0 -17 12 -18 160 -18 153 0 160 1 160 20 0 19 -7 20 -120 20
-66 0 -120 4 -120 8 0 4 56 90 125 192 69 101 125 189 125 197 0 10 -34 13
-160 13 -152 0 -160 -1 -160 -20z"/>
<path d="M3396 2459 c-16 -12 -35 -38 -43 -56 -32 -77 -27 -258 12 -407 14
-52 13 -58 -8 -103 -18 -39 -22 -66 -22 -143 l0 -95 94 -208 c80 -175 98 -208
119 -214 14 -3 32 -2 40 4 9 5 32 54 53 109 l37 99 71 0 c48 0 71 -4 71 -12 0
-7 10 -24 23 -39 47 -54 106 -4 77 66 -11 27 -10 31 24 65 20 19 36 42 36 50
0 21 3 20 119 -25 97 -38 105 -40 127 -25 13 8 24 24 24 34 0 19 -112 276
-170 390 -15 32 -47 74 -70 95 -38 34 -150 96 -175 96 -5 0 -26 24 -45 53 -52
78 -181 208 -242 244 -74 44 -116 50 -152 22z m175 -166 c34 -32 84 -87 112
-123 95 -126 207 -396 207 -501 0 -58 -13 -91 -28 -74 -5 6 -49 99 -98 208
-51 114 -96 203 -106 208 -24 13 -55 3 -68 -22 -9 -16 6 -57 81 -222 50 -111
93 -208 96 -214 3 -8 -3 -13 -18 -13 -68 0 -242 296 -289 493 -23 93 -33 292
-18 330 7 16 10 17 37 2 16 -8 58 -41 92 -72z m393 -346 c25 -33 139 -277 132
-284 -2 -2 -25 5 -51 15 l-49 19 -22 84 c-13 46 -34 112 -48 146 -14 35 -26
65 -26 68 0 13 41 -18 64 -48z m-402 -374 l37 -52 -15 -45 c-9 -25 -19 -48
-24 -51 -4 -3 -35 57 -69 133 -51 115 -61 148 -61 193 l1 54 47 -90 c26 -50
64 -114 84 -142z"/>
<path d="M1404 2440 c-66 -37 -177 -157 -234 -254 -37 -61 -52 -78 -85 -91
-54 -21 -127 -76 -160 -120 -38 -48 -185 -452 -176 -479 14 -36 44 -37 118 -2
135 64 123 63 176 10 46 -46 47 -48 35 -81 -16 -45 -2 -68 43 -68 29 0 36 5
50 33 14 31 20 34 65 36 27 2 56 6 64 9 11 5 26 -17 61 -92 26 -55 55 -103 65
-109 44 -23 57 -3 139 224 94 257 99 300 50 414 -32 76 -32 75 -16 205 28 221
-23 395 -117 395 -15 0 -50 -13 -78 -30z m81 -79 c17 -28 25 -179 15 -273 -17
-154 -100 -387 -178 -500 -27 -39 -84 -79 -97 -67 -2 3 31 101 75 219 69 188
77 218 66 235 -16 25 -58 31 -75 11 -6 -8 -46 -105 -87 -217 -41 -111 -76
-205 -79 -208 -3 -2 -12 4 -20 15 -21 28 -18 99 9 205 59 232 137 382 267 512
75 75 92 87 104 68z m-442 -463 c-13 -39 -31 -109 -41 -156 l-17 -84 -47 -24
c-27 -14 -48 -20 -48 -15 0 14 77 226 96 263 17 34 63 88 74 88 4 0 -4 -32
-17 -72z m498 -161 c0 -40 -12 -90 -47 -186 -26 -72 -50 -131 -54 -131 -3 0
-16 20 -28 44 l-21 45 34 56 c18 31 51 97 71 145 21 49 40 88 42 86 2 -2 3
-29 3 -59z"/>
<path d="M2350 1605 l0 -225 25 0 25 0 0 105 c0 105 0 105 24 105 19 0 47 -26
116 -105 78 -89 96 -105 121 -105 30 0 29 1 -51 99 -45 54 -90 107 -100 116
-18 16 -16 20 71 120 49 56 89 105 89 109 0 8 -43 7 -55 -2 -6 -4 -46 -49 -89
-99 -58 -69 -85 -93 -102 -93 -24 0 -24 1 -24 100 l0 100 -25 0 -25 0 0 -225z"/>
<path d="M2010 715 c0 -3 -11 -98 -25 -213 -30 -239 -29 -237 -150 -354 -60
-58 -75 -78 -73 -98 3 -21 10 -26 51 -33 27 -4 354 -6 728 -5 612 3 680 5 695
19 22 23 11 40 -80 129 -42 40 -85 92 -95 114 -14 29 -27 102 -44 241 l-23
200 -492 3 c-271 1 -492 0 -492 -3z"/>
</g>
</svg>
